<svg xmlns="http://www.w3.org/2000/svg" xmlns:xlink="http://www.w3.org/1999/xlink" width="303.481" height="303.481" viewBox="0 0 303.481 303.481">
  <defs>
    <filter id="Subtraction_2" x="0" y="0" width="303.481" height="303.481" filterUnits="userSpaceOnUse">
      <feOffset dx="-4" dy="3" input="SourceAlpha"/>
      <feGaussianBlur stdDeviation="5" result="blur"/>
      <feFlood flood-color="#52acd9" flood-opacity="0.569"/>
      <feComposite operator="in" in2="blur"/>
      <feComposite in="SourceGraphic"/>
    </filter>
    <filter id="Subtraction_3" x="62.47" y="62.47" width="178.54" height="178.54" filterUnits="userSpaceOnUse">
      <feOffset dx="-4" dy="3" input="SourceAlpha"/>
      <feGaussianBlur stdDeviation="5" result="blur-2"/>
      <feFlood flood-color="#52acd9" flood-opacity="0.949"/>
      <feComposite operator="in" in2="blur-2"/>
      <feComposite in="SourceGraphic"/>
    </filter>
  </defs>
  <g id="rings1" transform="translate(-491.195 -235.294)">
    <g transform="matrix(1, 0, 0, 1, 491.19, 235.29)" filter="url(#Subtraction_2)">
      <path id="Subtraction_2-2" data-name="Subtraction 2" d="M-395.5,661a97.852,97.852,0,0,1-38.336-7.741,98.154,98.154,0,0,1-31.311-21.109,98.2,98.2,0,0,1-21.113-31.31A97.916,97.916,0,0,1-494,562.5a97.913,97.913,0,0,1,7.74-38.34,98.2,98.2,0,0,1,21.113-31.309,98.154,98.154,0,0,1,31.311-21.109A97.854,97.854,0,0,1-395.5,464a97.886,97.886,0,0,1,38.342,7.741,98.224,98.224,0,0,1,31.311,21.109,98.181,98.181,0,0,1,21.106,31.309A97.856,97.856,0,0,1-297,562.5a97.408,97.408,0,0,1-9.18,41.53,99.1,99.1,0,0,1-10.754,17.829,101.542,101.542,0,0,1-14.219,15.223A97.851,97.851,0,0,1-395.5,661Zm0-165.894A67.472,67.472,0,0,0-462.893,562.5a67.472,67.472,0,0,0,67.393,67.4,67.474,67.474,0,0,0,67.4-67.4A67.473,67.473,0,0,0-395.5,495.105Z" transform="translate(798.17 -96.43) rotate(34)" fill="#1b859e"/>
    </g>
    <g transform="matrix(1, 0, 0, 1, 491.19, 235.29)" filter="url(#Subtraction_3)">
      <path id="Subtraction_3-2" data-name="Subtraction 3" d="M-440.5,571a53.148,53.148,0,0,1-20.822-4.2,53.312,53.312,0,0,1-17.007-11.465A53.338,53.338,0,0,1-489.8,538.324,53.182,53.182,0,0,1-494,517.5a53.181,53.181,0,0,1,4.2-20.824,53.337,53.337,0,0,1,11.467-17.005A53.312,53.312,0,0,1-461.322,468.2,53.149,53.149,0,0,1-440.5,464a53.167,53.167,0,0,1,20.826,4.2,53.35,53.35,0,0,1,17.007,11.465A53.326,53.326,0,0,1-391.2,496.675,53.15,53.15,0,0,1-387,517.5a52.907,52.907,0,0,1-4.986,22.557,53.825,53.825,0,0,1-5.841,9.684,55.152,55.152,0,0,1-7.723,8.268A53.148,53.148,0,0,1-440.5,571Zm0-90.1a36.647,36.647,0,0,0-36.6,36.6,36.647,36.647,0,0,0,36.6,36.606A36.648,36.648,0,0,0-403.892,517.5,36.648,36.648,0,0,0-440.5,480.895Z" transform="translate(810.31 -33.96) rotate(34)" fill="#4ba69c"/>
    </g>
  </g>
</svg>
